<svg id="Capa_1" enable-background="new 0 0 512 512" height="512" viewBox="0 0 512 512" width="512" xmlns="http://www.w3.org/2000/svg"><g><path d="m486.185 264.701c0 45.81 0 0-21.08 37.2-3.88 6.85 5.725 93.599 1.245 100.039-44.18 63.55-116.4 106.13-198.74 109.8-3.85.17-22.439-38.562-26.329-38.562-37.53 0-18.611-30.202-50.721-44.722-7.88-3.55-55.381 53.454-62.811 49.144-76.379-44.3-127.749-126.95-127.749-221.6 0-5.73.19-11.43.57-17.07-.01-.01 0-.02 0-.02.39-6 .99-11.93 1.79-17.81 0 0 0 0 0-.01 6.63-48.63 26.92-92.9 56.87-128.85 10.21-12.26 21.54-23.54 33.84-33.71 44.27-36.56 101.03-58.53 162.93-58.53 47.83 0 92.59 13.12 130.89 35.96 22.27 13.26 42.35 29.82 59.59 49 39.43 43.89 63.93 101.49 65.45 164.78.04 2.08-25.745 12.871-25.745 14.961z" fill="#5e54ac"/><g><g><path d="m362.48 172.04-19.36 19.36c-15.23 15.23-28.54 32.15-39.73 50.38-11.18 18.25-20.22 37.78-26.88 58.26-5.9 18.11-8.9 37.06-8.9 56.11v155.59c-3.85.17-7.72.26-11.61.26-46.73 0-90.54-12.52-128.25-34.4v-125.94c0-7.74-3.92-14.85-10.25-19.3-.03-.03-.06-.05-.09-.07h-.02l-104.12-73.63c-1.83-1.29-3.47-2.75-4.93-4.33-4.07-4.39-6.7-9.76-7.77-15.42-1.13-5.89-.58-12.08 1.79-17.82.74-1.78 1.64-3.51 2.73-5.18.2-.33.45-.68.68-1 5.11-7.24 12.71-11.65 20.82-12.91 7.77-1.21 16 .49 22.93 5.39l53.41 37.77c-.08-.83-.15-1.69-.26-2.53-.47-4.96-1.09-9.92-1.84-14.84-2.82-18.65-7.44-37.01-13.84-54.86l-26.01-72.5c-.96-2.71-1.54-5.45-1.75-8.19-.16-2.09-.12-4.16.13-6.21 1.4-11.39 9.02-21.6 20.57-25.74 4.35-1.56 8.82-2.11 13.14-1.76 5.17.42 10.12 2.12 14.43 4.89 5.64 3.62 10.14 9.04 12.57 15.82l29.27 81.54v-97.54c0-3.6.6-7.07 1.73-10.29 3.97-11.49 14.43-19.93 26.99-20.98.6-.06 1.21-.08 1.85-.1.06-.01.14 0 .22-.01.65 0 1.29.01 1.93.02 9.68.43 18.26 5.45 23.75 12.92 1.53 2.09 2.83 4.37 3.83 6.8 1.61 3.83 2.49 8.01 2.49 12.36v98.96l29.61-92.38c1.47-4.57 3.9-8.58 6.98-11.87 7.44-7.91 18.7-11.66 29.77-9.15.8.17 1.6.38 2.4.62.13.04.23.07.33.12 2.81.9 5.4 2.14 7.74 3.69 8.89 5.88 14.21 15.95 14.09 26.59-.04 3.04-.53 6.13-1.51 9.19l-25.73 80.17 42.27-42.26c12.28-12.26 32.13-12.26 44.39.01 12.28 12.24 12.28 32.13.01 44.39z" fill="#ffddce"/><g fill="#ffcbbe"><path d="m362.478 127.639c-8.355-8.355-38.029 22.073-56.434 42.733-8.112 9.106-22.411 8.89-30.229-.47l42.262-42.262c12.269-12.258 32.145-12.258 44.401-.001z"/><path d="m280.903 50.152c-12.46-3.02-33.863 66.961-44.135 103.495-2.985 10.616-15.4 15.29-24.647 9.282l29.622-92.374c5.262-16.402 22.748-25.479 39.16-20.403z"/><path d="m149.336 160.78v-97.538c0-17.069 13.616-30.96 30.576-31.376-9.304 1.084-10.132 76.135-9.943 114.618.052 10.69-10.641 18.094-20.633 14.296z"/><path d="m202.046 261.952c-21.589-27.587-47.964-35.423-66.301-37.139-2.686-.251-5.275-.378-7.753-.415-15.233-40.049-59.088-158.306-48.063-164.116-16.324 5.854-24.798 23.834-18.944 40.158l26.004 72.498c8.365 23.34 13.715 47.612 15.94 72.224 0 0 .631-.322 1.806-.834 8.027-3.504 16.764-5.079 25.514-4.671 17.396.81 40.802 7.26 59.872 31.625 1.494 1.908 3.716 2.908 5.968 2.908 1.636 0 3.282-.525 4.665-1.606 3.291-2.584 3.867-7.34 1.292-10.632z"/><path d="m150.72 376.96v112.45c-7.88-3.55-15.54-7.5-22.97-11.81v-125.94c0-7.74-3.92-14.85-10.25-19.3-.03-.03-.06-.05-.09-.07h-.02l-104.12-73.63c-1.83-1.29-3.47-2.75-4.93-4.33-4.06-4.39-6.7-9.75-7.77-15.4-.01-.01 0-.02 0-.02-1.13-5.88-.58-12.08 1.79-17.81 0 0 0 0 0-.01.74-1.78 1.64-3.51 2.73-5.18.2-.33.45-.68.68-1-2.47 4.33 1.01 11.4 8.11 19.78 20.28 23.88 70.03 58.34 95.13 69.92 33.88 15.63 41.71 35.85 41.71 72.35z"/></g></g></g><path d="m407.393 96.403c-2.366-2.028-4.989-3.558-7.742-4.608 7.656-10.951 5.9-26.136-4.459-35.015-6.701-5.743-15.458-7.518-23.42-5.559-.504-5.281-2.96-10.383-7.306-14.108-8.906-7.634-22.315-6.602-29.948 2.305-.961 1.121-1.783 2.313-2.47 3.556-11.197-5.847-25.013-4.356-34.704 3.974-1.536-3.296-3.776-6.328-6.717-8.849-11.029-9.453-27.634-8.175-37.087 2.854-.008.009-.014.018-.022.027-8.902-7.193-21.959-6.062-29.457 2.685-4.463 5.207-5.942 11.947-4.64 18.178-6.359.731-12.469 3.765-16.962 9.008-6.957 8.117-8.092 19.248-3.813 28.33-6.545 2.754-11.917 7.745-15.136 14.03-5.492-5.926-13.338-9.638-22.054-9.638-16.606 0-30.068 13.462-30.068 30.069 0 3.562.623 6.977 1.76 10.148-15.201 1.502-27.076 14.323-27.076 29.92 0 10.089 4.974 19.011 12.598 24.465-4.209 4.367-6.811 10.294-6.811 16.838 0 13.41 10.871 24.281 24.281 24.281 1.688 0 3.334-.174 4.925-.501 3.254 14.069 14.828 24.952 29.267 27.167-1.719 3.785-2.684 7.985-2.684 12.413 0 16.606 13.462 30.069 30.069 30.069.013 0 .026-.001.04-.001.379 13.078 11.075 23.571 24.245 23.571 7.839 0 14.791-3.731 19.23-9.496 5.365 4.976 12.544 8.022 20.438 8.022 15.872 0 28.862-12.3 29.981-27.887.029 0 .058.004.087.004 13.41 0 24.281-10.871 24.281-24.281l9.004-90.933c8.906 7.634 22.315 6.602 29.949-2.305 1.915-2.234 3.284-4.753 4.12-7.392 9.736 3.048 20.782.252 27.842-7.984 6.647-7.755 7.981-18.263 4.358-27.107 7.062-.274 13.994-3.372 18.956-9.161 9.453-11.032 8.175-27.636-2.855-37.089z" fill="#ddeafb"/><path d="m233.111 308.439c.18 6.15 2.64 11.72 6.56 15.9-4.42 4.72-10.69 7.67-17.67 7.67-13.17 0-23.86-10.49-24.24-23.57h-.04c-16.61 0-30.07-13.46-30.07-30.06 0-4.43.96-8.63 2.68-12.42-14.44-2.21-26.01-13.1-29.27-27.16-1.59.32-3.23.5-4.92.5-13.41 0-24.28-10.87-24.28-24.28 0-6.55 2.6-12.48 6.81-16.84-7.63-5.46-12.6-14.38-12.6-24.47 0-15.59 11.88-28.41 27.08-29.92-1.14-3.17-1.76-6.58-1.76-10.15 0-16.6 13.46-30.06 30.06-30.06 6.61 0 12.72 2.13 17.68 5.75-7.51 5.46-12.39 14.32-12.39 24.31 0 3.57.63 6.98 1.76 10.15-15.2 1.51-27.07 14.33-27.07 29.92 0 10.09 4.97 19.01 12.6 24.47-4.21 4.36-6.81 10.29-6.81 16.84 0 13.41 10.87 24.28 24.28 24.28 1.68 0 3.33-.18 4.92-.5 3.26 14.06 14.83 24.95 29.27 27.16-1.72 3.79-2.69 7.99-2.69 12.42 0 16.6 13.47 30.06 30.07 30.06z" fill="#cbe2ff"/><path d="m290.631 38.099c.19.16.38.33.56.51-.8.72-1.57 1.51-2.29 2.35-.01 0-.02.01-.03.02-8.9-7.19-21.96-6.06-29.45 2.69-4.46 5.2-5.94 11.95-4.64 18.18-6.36.73-12.47 3.76-16.96 9-6.96 8.12-8.1 19.25-3.82 28.33-6.54 2.76-11.91 7.75-15.13 14.03-5.5-5.92-13.34-9.63-22.06-9.63-2.14 0-4.23.22-6.25.66 2.4-2.1 5.12-3.81 8.09-5.06-4.28-9.08-3.15-20.21 3.81-28.33 4.49-5.24 10.6-8.27 16.96-9-1.3-6.23.18-12.98 4.64-18.18 7.5-8.75 20.55-9.88 29.46-2.69 0-.01.01-.02.02-.02 9.45-11.03 26.06-12.31 37.09-2.86z" fill="#cbe2ff"/><path d="m341.712 204.705-71.51-71.51c-16.626-16.626-43.582-16.626-60.208 0l-39.706 39.705c-16.626 16.626-16.626 43.582 0 60.208l71.51 71.51c16.626 16.626 43.582 16.626 60.208 0l39.705-39.705c16.627-16.626 16.627-43.582.001-60.208z" fill="#dd5790"/><path d="m308.648 297.978-6.64 6.64c-16.63 16.62-43.58 16.62-60.21 0l-71.51-71.51c-16.62-16.63-16.62-43.58 0-60.21l39.71-39.71c6.53-6.53 14.65-10.5 23.12-11.89l-33.08 33.08c-16.62 16.62-16.62 43.58 0 60.21l71.51 71.51c10.1 10.09 24.01 14.06 37.1 11.88z" fill="#da387d"/><g><g><path d="m512 256c0 54.24-16.87 104.54-45.65 145.94l-58.95-58.94c-5.47-5.47-13.28-7.73-20.9-6.4-.03 0-.07.01-.11.02h-.01l-125.7 21.57c-2.2.38-4.39.51-6.54.42-14.12-.54-26.47-10.6-29.47-24.87-.09-.38-.16-.8-.22-1.19-1.5-8.73.75-17.22 5.6-23.85 4.63-6.35 11.65-10.96 20.02-12.4l64.47-11.06c-.65-.53-1.3-1.08-1.98-1.6-3.84-3.18-7.77-6.24-11.79-9.2-15.17-11.19-31.43-20.91-48.57-29l-39.64-18.71-30.02-14.16c-4.58-2.17-8.39-5.29-11.33-9.04-7.06-9.05-8.9-21.66-3.66-32.75 4.33-9.17 12.52-15.28 21.72-17.28 6.54-1.43 13.56-.78 20.07 2.29l6.56 3.1 71.79 33.87-68.97-68.97c-2.55-2.55-4.57-5.43-6.05-8.5-5.32-10.93-3.89-24.3 4.25-33.92.38-.46.8-.92 1.23-1.38.04-.05.1-.1.15-.16.46-.46.92-.91 1.38-1.35 7.15-6.54 16.77-9.06 25.93-7.66 2.56.4 5.1 1.09 7.52 2.1 3.84 1.56 7.43 3.9 10.5 6.98l69.97 69.97-44.38-86.25c-2.2-4.28-3.31-8.83-3.46-13.34-.33-10.85 4.97-21.46 14.58-27.52.69-.44 1.41-.86 2.14-1.25.11-.07.21-.11.31-.15 2.63-1.35 5.34-2.3 8.09-2.86 10.44-2.14 21.33 1.23 28.76 8.83 2.13 2.18 3.97 4.71 5.43 7.57l38.5 74.88.01-59.77c0-5.05 1.2-9.82 3.31-14.05 5.15-10.29 15.78-17.34 28.08-17.33 17.34-.03 31.4 14.04 31.4 31.38v27.38c0 2.53.04 5.05.11 7.57.52 18.98 3.02 37.79 7.42 56.15 4.99 20.81 12.41 41.01 22.18 60.2 8.64 16.98 19.92 32.5 33.39 45.97l2.46 2.46c.04 2.08.07 4.17.07 6.26z" fill="#ffddce"/><g fill="#ffcbbe"><path d="m414.969 18.614c-11.815 0-11.283 42.498-9.688 70.121.703 12.175-9.561 22.133-21.707 21.042v-59.768c.007-17.341 14.061-31.395 31.395-31.395z"/><path d="m302.495 21.505c-10.946 6.675 23.403 71.293 41.974 104.39 5.396 9.617-.078 21.701-10.865 23.991l-44.373-86.264c-7.876-15.318-1.93-34.101 13.264-42.117z"/><path d="m287.688 192.763-68.97-68.97c-12.07-12.07-12.264-31.52-.566-43.807-5.813 7.345 46.671 61 74.016 88.078 7.597 7.523 5.272 20.319-4.48 24.699z"/><path d="m167.547 170.778c-7.403 15.682-.682 34.388 15 41.791l69.652 32.876c22.419 10.589 43.365 23.969 62.342 39.799 0 0 .219-.674.687-1.867.228-.582.466-1.16.714-1.734 5.228-12.12.337-26.196-11.51-32.017-46.424-22.808-139.657-69.897-136.885-78.848z"/><path d="m478.89 382c-3.88 6.85-8.06 13.5-12.54 19.94l-58.95-58.94c-5.47-5.47-13.28-7.73-20.9-6.4-.03 0-.07.01-.11.02h-.01l-125.7 21.57c-2.2.38-4.39.51-6.54.42-14.12-.54-26.47-10.6-29.47-24.87-.09-.38-.16-.8-.22-1.19 1.31 4.82 8.77 7.36 19.72 8.25 31.22 2.55 90.77-8.26 116.71-17.82 35.01-12.9 54.84-4.14 80.65 21.67z"/></g></g></g><path d="m315.154 157.992c-5.134 0-9.871 1.694-13.685 4.554-4.188-4.863-10.385-7.947-17.307-7.947-12.613 0-22.837 10.224-22.837 22.837 0 8.294 4.422 15.555 11.037 19.555-1.833 3.287-2.881 7.072-2.881 11.103 0 12.613 10.224 22.837 22.837 22.837 12.612 0 22.837-10.224 22.837-22.837 0-1.519-.152-3.003-.435-4.439.145.003.289.011.435.011 12.613 0 22.837-10.224 22.837-22.837-.001-12.613-10.225-22.837-22.838-22.837z" fill="#ddeafb"/><path d="m301.485 229.006c-2.8 1.24-5.9 1.92-9.16 1.92-12.62 0-22.84-10.22-22.84-22.83 0-4.03 1.05-7.82 2.88-11.11-6.61-4-11.04-11.26-11.04-19.55 0-12.61 10.23-22.84 22.84-22.84 3.26 0 6.36.68 9.16 1.92-8.05 3.53-13.67 11.57-13.67 20.92 0 8.29 4.42 15.55 11.04 19.55-1.84 3.29-2.89 7.08-2.89 11.11 0 9.35 5.63 17.39 13.68 20.91z" fill="#cbe2ff"/></g></svg>